<svg xmlns="http://www.w3.org/2000/svg" width="1024" height="1024" viewBox="0 0 1024 1024" version="1.1">
	<path d="M 110.254 390.199 C 107.750 390.740, 105.581 391.914, 104.967 393.062 C 104.261 394.380, 104.026 422.340, 104.236 479.754 L 104.547 564.500 106.846 572.500 C 110.724 585.994, 115.093 592.784, 128 605.373 C 134.325 611.542, 142.987 619.548, 147.248 623.163 C 156.113 630.683, 155.899 630.624, 177.599 631.639 C 190.999 632.266, 191.895 632.187, 195.689 630.055 C 197.884 628.821, 200.427 626.547, 201.340 625.001 C 203.267 621.739, 203.434 615.682, 201.705 611.784 C 201.042 610.289, 192.776 601.849, 183.336 593.027 C 170.940 581.442, 165.523 575.669, 163.836 572.243 C 161.517 567.535, 161.495 567.145, 160.874 520 C 160.419 485.481, 160.558 471.817, 161.383 470 C 163.026 466.383, 166.465 466.236, 168.665 469.689 C 172.453 475.635, 224.447 530.690, 227.057 531.518 C 228.079 531.843, 230.049 531.514, 231.435 530.788 C 233.770 529.564, 247.808 514.736, 278.804 480.750 C 285.701 473.188, 291.872 467, 292.517 467 C 293.162 467, 294.463 467.854, 295.407 468.898 C 296.991 470.648, 297.095 474.479, 296.748 518.148 C 296.356 567.448, 296.139 570.011, 291.914 575.382 C 290.783 576.820, 282.803 584.600, 274.179 592.672 C 265.556 600.744, 257.731 608.733, 256.792 610.424 C 254.630 614.317, 254.533 621.214, 256.579 625.526 C 257.658 627.798, 259.641 629.553, 262.829 631.055 C 267.251 633.139, 268.323 633.219, 282.937 632.555 C 291.427 632.169, 299.627 631.324, 301.158 630.677 C 304.771 629.150, 332.825 603.428, 337.953 596.940 C 342.889 590.696, 347.434 581.459, 349.733 573 C 351.358 567.023, 351.500 559.609, 351.500 480.777 L 351.500 395.055 349.222 392.777 C 346.958 390.514, 346.769 390.500, 318.423 390.500 L 289.901 390.500 283.200 397.532 C 269.482 411.928, 236.089 447.617, 233.286 450.878 C 229.486 455.298, 228.376 454.814, 218.997 444.639 C 214.870 440.163, 202.595 426.825, 191.718 415 C 180.841 403.175, 170.717 392.600, 169.221 391.500 C 166.675 389.628, 164.831 389.493, 140.500 389.391 C 126.200 389.331, 112.589 389.694, 110.254 390.199 M 749.420 456.145 C 747.063 457.288, 744 461.984, 744 464.454 C 744 467.349, 746.768 471.573, 749.472 472.805 C 753.733 474.747, 756.928 474.226, 760.077 471.077 C 767.655 463.499, 759.066 451.464, 749.420 456.145 M 796 456.175 C 787.638 458.551, 782.438 465.928, 781.198 477.174 L 780.500 483.500 776.250 483.807 L 772 484.115 772 491.057 L 772 498 777.085 498 L 782.169 498 781.835 525.001 L 781.500 552.001 789.734 552.001 L 797.967 552 798.234 525.250 L 798.500 498.500 805.750 498.206 L 813 497.912 813 491.456 C 813 487.905, 812.888 484.721, 812.750 484.379 C 812.612 484.037, 809.350 483.700, 805.500 483.629 C 798.962 483.509, 798.478 483.345, 798.168 481.155 C 797.725 478.026, 799.784 473.265, 802.360 471.460 C 803.507 470.657, 806.482 469.999, 808.973 469.998 L 813.500 469.995 813.593 463.501 L 813.685 457.007 810.093 456.009 C 805.709 454.791, 800.660 454.851, 796 456.175 M 674.437 460.750 C 674.764 462.262, 675.108 483.413, 675.200 507.750 L 675.367 552 683.684 552 L 692 552 692 530.468 C 692 507.300, 692.471 504.593, 697.273 500.168 C 700.764 496.951, 707.314 496.176, 711.584 498.475 C 717.292 501.550, 718 505.028, 718 530.020 L 718 552 726.076 552 L 734.152 552 733.826 526.750 C 733.515 502.661, 733.393 501.282, 731.166 496.761 C 723.896 481.998, 704.742 477.130, 694.947 487.556 C 693.684 488.900, 692.258 490, 691.778 490 C 691.298 490, 691.038 482.799, 691.202 473.999 L 691.500 457.997 682.671 457.999 L 673.841 458 674.437 460.750 M 842.203 463.718 C 841.054 466.898, 834.273 486.150, 827.135 506.500 C 819.997 526.850, 813.466 545.413, 812.623 547.750 L 811.089 552 820.334 552 L 829.579 552 832.604 542.750 L 835.629 533.500 854.565 533.500 L 873.500 533.500 876.610 542.500 L 879.720 551.500 888.860 551.788 C 895.738 552.004, 898 551.760, 898 550.804 C 898 549.687, 893.003 535.571, 870.635 473.500 L 865.230 458.500 854.761 458.218 L 844.292 457.935 842.203 463.718 M 905.416 458.864 C 906.175 460.093, 906.286 546.013, 905.532 549.014 L 904.907 551.500 914.465 551.308 L 924.023 551.116 924.261 504.558 L 924.500 458 914.691 458 C 909.296 458, 905.122 458.389, 905.416 458.864 M 453.841 482.942 C 447.877 495.349, 442.143 507.300, 441.098 509.500 L 439.199 513.500 428.786 492 C 423.059 480.175, 417.502 468.364, 416.437 465.754 L 414.500 461.007 404 461.004 L 393.500 461 393.730 507.250 L 393.960 553.500 402.230 553.500 L 410.500 553.500 410.131 521.250 C 409.884 499.646, 410.101 489, 410.788 489 C 411.352 489, 413.185 492.262, 414.861 496.250 C 416.537 500.238, 421.041 510.475, 424.870 519 L 431.832 534.500 438.673 534.789 L 445.514 535.078 455.917 512.039 C 461.639 499.368, 466.699 489, 467.161 489 C 467.622 489, 468 503.400, 468 521 L 468 553 477.131 553 L 486.262 553 485.642 549.250 C 485.301 547.188, 485.017 526.375, 485.010 503 L 484.998 460.500 474.841 460.442 L 464.684 460.385 453.841 482.942 M 574.500 468.930 L 567.500 469.500 567.468 477 L 567.437 484.500 562.718 484.805 L 558 485.110 558 492.595 L 558 500.081 562.004 499.845 C 564.207 499.715, 566.426 500.034, 566.936 500.554 C 567.445 501.074, 568.006 510.500, 568.181 521.500 C 568.487 540.667, 568.604 541.688, 571 546 C 574.337 552.006, 579.279 554.428, 588.043 554.350 C 597.956 554.262, 599 553.373, 599 545.012 L 599 538.094 594.084 538.676 C 589.712 539.194, 588.879 538.970, 586.560 536.651 L 583.953 534.043 584.226 516.772 L 584.500 499.500 590.793 499.201 L 597.086 498.902 596.793 491.802 L 596.500 484.701 590.500 484.600 L 584.500 484.500 584.323 479.500 C 584.225 476.750, 584.113 473.038, 584.073 471.250 C 584.028 469.252, 583.519 468.069, 582.750 468.180 C 582.063 468.279, 578.350 468.617, 574.500 468.930 M 853.612 479.083 C 853.362 479.862, 850.648 488.150, 847.579 497.501 C 844.511 506.851, 842 515.064, 842 515.751 C 842 516.686, 845.286 517, 855.073 517 C 865.038 517, 868.070 516.703, 867.823 515.750 C 866.598 511.012, 855.585 479.320, 854.908 478.583 C 854.411 478.042, 853.879 478.247, 853.612 479.083 M 628.951 482.300 C 613.183 486.767, 604.128 501.572, 605.239 521.064 C 606.066 535.569, 613.195 547.187, 624.273 552.084 C 631.615 555.330, 643.533 555.339, 650.204 552.104 C 656.065 549.262, 662.393 542.501, 665.562 535.695 C 668.406 529.587, 668.646 527.538, 666.418 528.393 C 665.548 528.727, 661.778 529, 658.040 529 C 651.417 529, 651.210 529.078, 649.989 532.026 C 647.704 537.543, 641.020 540.789, 634.472 539.561 C 625.675 537.910, 620.172 527.770, 621.332 515.350 C 622.350 504.449, 627.149 498.133, 635.620 496.543 C 640.353 495.656, 647.374 498.888, 649.455 502.912 C 651.047 505.992, 651.074 506, 659.470 506 L 667.889 506 665.780 500.925 C 663.080 494.428, 656.173 486.746, 650.610 484.053 C 645.153 481.412, 634.990 480.589, 628.951 482.300 M 517 482.882 C 508.770 484.686, 501.304 490.575, 498.468 497.500 C 495.222 505.425, 494.884 505, 504.433 505 C 512.036 505, 513 504.796, 513 503.189 C 513 502.192, 513.912 500.398, 515.028 499.201 C 520.647 493.169, 532.792 496.223, 534.523 504.103 C 535.799 509.914, 534.611 511, 526.982 511 C 513.335 511, 502.620 514.952, 498.011 521.685 C 494.528 526.773, 493.907 537.938, 496.792 543.591 C 499.282 548.470, 501.339 550.347, 507.018 552.923 C 515.041 556.562, 525.452 555.269, 530.494 550.006 C 534.113 546.229, 535 546.228, 535 550 L 535 553 542.785 553 L 550.569 553 550.181 527.250 C 549.833 504.166, 549.583 501.007, 547.770 496.743 C 545.560 491.543, 540.522 486.534, 535.317 484.359 C 531.178 482.630, 521.653 481.861, 517 482.882 M 745.500 518 L 745.500 552 754.012 552 L 762.524 552 762.512 518.003 L 762.500 484.006 754 484.003 L 745.500 484 745.500 518 M 517.383 523.914 C 509.619 527.439, 507.725 533.879, 512.923 539.077 C 515.136 541.290, 516.775 542, 519.673 541.998 C 524.330 541.997, 529.699 539.399, 532.252 535.913 C 534.688 532.588, 535.686 525.532, 534.008 523.510 C 532.206 521.338, 522.536 521.573, 517.383 523.914" stroke="none" fill="#003965" fill-rule="evenodd"/>
</svg>